# xmcd CD database file
#
# Track frame offsets:
#	150
#	22340
#	54943
#	70115
#	84553
#	104058
#	123117
#	135595
#	168363
#	185855
#	203645
#	226751
#	245743
#
# Disc length: 3619 seconds
#
# Revision: 2
# Processed by: cddbd v1.5.2PL0 Copyright (c) Steve Scherf et al.
# Submitted via: CDex 1.51
#
DISCID=b40e210d
DTITLE=Rice Brothers - Mostly Shorter
DYEAR=2009
DGENRE=Jazz
TTITLE0=Rice Brothers - House of Jade
TTITLE1=Rice Brothers - Infant Eyes
TTITLE2=Rice Brothers - El Gaucho
TTITLE3=Rice Brothers - Pinnochio
TTITLE4=Rice Brothers - Iris
TTITLE5=Rice Brothers - Armageddon
TTITLE6=Rice Brothers 502 Blues
TTITLE7=Rice Brothers - Virgo
TTITLE8=Rice Brothers - Fall
TTITLE9=Rice Brothers - Pee Wee
TTITLE10=Rice Brothers - Blue in Green
TTITLE11=Rice Brothers - Peace
TTITLE12=Rice Brothers - Adam's Apple
EXTD=YEAR: 2009
EXTT0=
EXTT1=
EXTT2=
EXTT3=
EXTT4=
EXTT5=
EXTT6=
EXTT7=
EXTT8=
EXTT9=
EXTT10=
EXTT11=
EXTT12=
PLAYORDER=
